# xmcd
#
# Track frame offsets: 
#        183
#        21883
#        34583
#        52235
#        66128
#        83175
#        96398
#        106445
#        119783
#        136828
#        149185
#        161243
#        178475
#        192150
#        207375
#        222518
#
# Disc length: 3189 seconds
#
# Revision: 3
# Processed by: cddbd v1.5.2PL0 Copyright (c) Steve Scherf et al.
# Submitted via: ExactAudioCopyFreeDBPlugin 1.0
#
DISCID=090c7310
DTITLE=Jonny Hill - Ruf Teddybär Eins-Vier
DYEAR=1900
DGENRE=Country
TTITLE0=Ruf Teddybär Eins-Vier
TTITLE1=Mein bester Freund
TTITLE2=Träume die hat jeder
TTITLE3=Unser Käpt'n der kann jodeln
TTITLE4=Eine Heimat und doch kein Zuhaus
TTITLE5=Der Schuss ins Glück
TTITLE6=Wenn ich zu meiner Liebsten geh'
TTITLE7=Ich wollte dir noch so viel sagen
TTITLE8=Weit, weit ist es nach Lüdenscheid
TTITLE9=Die Möwen von Helgoland
TTITLE10=Ich bin überall zuhaus'
TTITLE11=Mal bist du traurig, mal bist du froh
TTITLE12=Der Wind weht heim
TTITLE13=Auf St. Pauli spielt der Johnny Mundharmonika
TTITLE14=Mein Junge, komm wieder nach Hause
TTITLE15=Der letzte Drink
EXTD=ID3G: 2
EXTT0=
EXTT1=
EXTT2=
EXTT3=
EXTT4=
EXTT5=
EXTT6=
EXTT7=
EXTT8=
EXTT9=
EXTT10=
EXTT11=
EXTT12=
EXTT13=
EXTT14=
EXTT15=
PLAYORDER=
